<svg width="35" height="36" viewBox="0 0 35 36" fill="none" xmlns="http://www.w3.org/2000/svg">
<path d="M28.9844 3.9375H6.01562C5.43567 3.93818 4.87965 4.17545 4.46956 4.59726C4.05946 5.01907 3.82878 5.59097 3.82812 6.1875V29.8125C3.82879 30.409 4.05947 30.9809 4.46956 31.4027C4.87965 31.8245 5.43567 32.0618 6.01562 32.0625H28.9844C29.5643 32.0618 30.1203 31.8245 30.5304 31.4027C30.9405 30.9809 31.1712 30.409 31.1719 29.8125V6.1875C31.1712 5.59097 30.9405 5.01907 30.5304 4.59726C30.1204 4.17545 29.5643 3.93818 28.9844 3.9375ZM13.125 24.7501C13.125 25.0485 13.0098 25.3347 12.8046 25.5456C12.5995 25.7566 12.3213 25.8751 12.0312 25.8751C11.7412 25.8751 11.463 25.7566 11.2579 25.5456C11.0527 25.3347 10.9375 25.0485 10.9375 24.7501V15.7501C10.9375 15.4518 11.0527 15.1656 11.2579 14.9546C11.463 14.7437 11.7412 14.6251 12.0312 14.6251C12.3213 14.6251 12.5995 14.7437 12.8046 14.9546C13.0098 15.1656 13.125 15.4518 13.125 15.7501V24.7501ZM12.0312 12.9375C11.7068 12.9375 11.3896 12.8385 11.1198 12.6531C10.85 12.4677 10.6397 12.2041 10.5155 11.8958C10.3913 11.5874 10.3588 11.2481 10.4221 10.9208C10.4855 10.5934 10.6417 10.2928 10.8712 10.0568C11.1006 9.82076 11.3929 9.66004 11.7112 9.59492C12.0294 9.52981 12.3593 9.56323 12.6591 9.69095C12.9589 9.81868 13.2151 10.035 13.3954 10.3125C13.5757 10.59 13.6719 10.9162 13.6719 11.25C13.6719 11.6976 13.499 12.1268 13.1913 12.4432C12.8837 12.7597 12.4664 12.9375 12.0312 12.9375ZM25.1562 24.7501C25.1562 25.0485 25.041 25.3347 24.8359 25.5456C24.6308 25.7566 24.3526 25.8751 24.0625 25.8751C23.7724 25.8751 23.4942 25.7566 23.2891 25.5456C23.084 25.3347 22.9688 25.0485 22.9688 24.7501V19.6876C22.9688 18.9417 22.6807 18.2263 22.1679 17.6989C21.6551 17.1715 20.9596 16.8751 20.2344 16.8751C19.5092 16.8751 18.8137 17.1715 18.3009 17.6989C17.7881 18.2263 17.5 18.9417 17.5 19.6876V24.7501C17.5 25.0485 17.3848 25.3347 17.1796 25.5456C16.9745 25.7566 16.6963 25.8751 16.4062 25.8751C16.1162 25.8751 15.838 25.7566 15.6329 25.5456C15.4277 25.3347 15.3125 25.0485 15.3125 24.7501V15.7501C15.3124 15.4736 15.4114 15.2067 15.5905 15.0005C15.7696 14.7943 16.0164 14.6631 16.2835 14.6322C16.5507 14.6013 16.8196 14.6726 17.0388 14.8327C17.2581 14.9928 17.4123 15.2304 17.472 15.5C18.2116 14.983 19.0744 14.6832 19.9673 14.6327C20.8603 14.5823 21.7498 14.7833 22.54 15.2139C23.3303 15.6446 23.9914 16.2887 24.4524 17.0769C24.9134 17.8652 25.1567 18.7678 25.1562 19.6876V24.7501Z" fill="#0A66C2"/>
</svg>
