<svg width="30" height="30" viewBox="0 0 30 30" fill="none" xmlns="http://www.w3.org/2000/svg">
<g id="notification-4_svgrepo.com">
<path id="Vector" d="M14.6572 9.1757C15.1746 9.1579 15.5797 8.72399 15.5619 8.20652C15.5441 7.68906 15.1102 7.284 14.5927 7.3018L14.6572 9.1757ZM8.94803 14.4525L8.01098 14.4812C8.01131 14.4923 8.01184 14.5032 8.01256 14.5142L8.94803 14.4525ZM7.34781 18.7238L7.95983 19.4339C7.97659 19.4195 7.99284 19.4045 8.00854 19.3889L7.34781 18.7238ZM6.79938 19.1775L7.35008 19.9363C7.36555 19.925 7.38068 19.9132 7.39544 19.9011L6.79938 19.1775ZM12.1875 22.1875C12.7052 22.1875 13.125 21.7677 13.125 21.25C13.125 20.7323 12.7052 20.3125 12.1875 20.3125V22.1875ZM14.6572 7.3018C14.1397 7.284 13.7059 7.68906 13.688 8.20652C13.6702 8.72399 14.0752 9.1579 14.5927 9.1757L14.6572 7.3018ZM20.3019 14.4525L21.2374 14.5141C21.2381 14.5031 21.2386 14.4923 21.239 14.4812L20.3019 14.4525ZM21.9021 18.7225L21.2414 19.3876C21.2571 19.4031 21.2734 19.4182 21.2901 19.4326L21.9021 18.7225ZM22.4506 19.1762L21.8545 19.8999C21.869 19.9117 21.8837 19.9233 21.8989 19.9342L22.4506 19.1762ZM17.0625 20.3125C16.5447 20.3125 16.125 20.7323 16.125 21.25C16.125 21.7677 16.5447 22.1875 17.0625 22.1875V20.3125ZM13.6875 8.23875C13.6875 8.75651 14.1072 9.17625 14.625 9.17625C15.1427 9.17625 15.5625 8.75651 15.5625 8.23875H13.6875ZM15.5625 6.25C15.5625 5.73224 15.1427 5.3125 14.625 5.3125C14.1072 5.3125 13.6875 5.73224 13.6875 6.25H15.5625ZM12.1875 20.3125C11.6697 20.3125 11.25 20.7323 11.25 21.25C11.25 21.7677 11.6697 22.1875 12.1875 22.1875V20.3125ZM17.0625 22.1875C17.5802 22.1875 18 21.7677 18 21.25C18 20.7323 17.5802 20.3125 17.0625 20.3125V22.1875ZM13.125 21.25C13.125 20.7323 12.7052 20.3125 12.1875 20.3125C11.6697 20.3125 11.25 20.7323 11.25 21.25H13.125ZM18 21.25C18 20.7323 17.5802 20.3125 17.0625 20.3125C16.5447 20.3125 16.125 20.7323 16.125 21.25H18ZM14.5927 7.3018C10.8154 7.43173 7.89385 10.665 8.01098 14.4812L9.88509 14.4237C9.79828 11.5952 11.9562 9.2686 14.6572 9.1757L14.5927 7.3018ZM8.01256 14.5142C8.10035 15.8435 7.61208 17.1398 6.68709 18.0586L8.00854 19.3889C9.324 18.082 10.0065 16.2533 9.88349 14.3907L8.01256 14.5142ZM6.7358 18.0136C6.53994 18.1824 6.37531 18.3122 6.2033 18.4539L7.39544 19.9011C7.53299 19.7878 7.74374 19.6201 7.95983 19.4339L6.7358 18.0136ZM6.24868 18.4187C5.9746 18.6177 5.72555 18.902 5.5399 19.2021C5.35655 19.4984 5.18113 19.8972 5.15865 20.3385C5.13406 20.8211 5.30031 21.3579 5.7942 21.7355C6.23605 22.0735 6.81829 22.1875 7.43434 22.1875V20.3125C7.23018 20.3125 7.09513 20.2925 7.01228 20.2714C6.93013 20.2505 6.91551 20.2326 6.93321 20.2461C6.95614 20.2637 6.99013 20.301 7.01254 20.3546C7.03289 20.4035 7.03114 20.4355 7.03123 20.434C7.0314 20.4304 7.03389 20.4041 7.05174 20.3549C7.06918 20.3067 7.09665 20.2496 7.13435 20.1887C7.17184 20.1281 7.21448 20.0718 7.25671 20.0247C7.30015 19.9763 7.33391 19.9479 7.35008 19.9363L6.24868 18.4187ZM7.43434 22.1875H12.1875V20.3125H7.43434V22.1875ZM14.5927 9.1757C17.2937 9.2686 19.4516 11.5952 19.3649 14.4237L21.239 14.4812C21.3561 10.665 18.4345 7.43173 14.6572 7.3018L14.5927 9.1757ZM19.3665 14.3909C19.2439 16.253 19.9264 18.0811 21.2414 19.3876L22.5629 18.0574C21.6381 17.1388 21.1499 15.843 21.2374 14.5141L19.3665 14.3909ZM21.2901 19.4326C21.5062 19.6189 21.717 19.7865 21.8545 19.8999L23.0466 18.4526C22.8746 18.311 22.71 18.1811 22.5141 18.0124L21.2901 19.4326ZM21.8989 19.9342C21.9156 19.9464 21.9499 19.9753 21.9936 20.0241C22.0362 20.0716 22.0792 20.1282 22.1171 20.1892C22.1551 20.2505 22.1829 20.3079 22.2005 20.3562C22.2185 20.4058 22.2211 20.4321 22.2212 20.4356C22.2214 20.4371 22.2195 20.4048 22.24 20.3555C22.2625 20.3013 22.2969 20.2638 22.32 20.246C22.3377 20.2324 22.3231 20.2502 22.2406 20.2712C22.1574 20.2925 22.0217 20.3125 21.8169 20.3125V22.1875C22.4335 22.1875 23.0165 22.0736 23.4586 21.7356C23.9535 21.3574 24.1192 20.8196 24.0936 20.3366C24.0702 19.8951 23.8939 19.4965 23.7102 19.2005C23.5242 18.9008 23.2752 18.617 23.0022 18.4183L21.8989 19.9342ZM21.8169 20.3125H17.0625V22.1875H21.8169V20.3125ZM15.5625 8.23875V6.25H13.6875V8.23875H15.5625ZM12.1875 22.1875H17.0625V20.3125H12.1875V22.1875ZM11.25 21.25C11.25 23.126 12.7387 24.6875 14.625 24.6875V22.8125C13.8187 22.8125 13.125 22.1355 13.125 21.25H11.25ZM14.625 24.6875C16.5111 24.6875 18 23.126 18 21.25H16.125C16.125 22.1355 15.4311 22.8125 14.625 22.8125V24.6875Z" fill="white"/>
</g>
</svg>
