<svg width="20" height="20" viewBox="0 0 20 20" fill="none" xmlns="http://www.w3.org/2000/svg">
<g id="options-vertical_svgrepo.com">
<path id="Vector" d="M7.33333 17.2148V16.6836C7.34505 16.6406 7.36458 16.6015 7.37239 16.5586C7.54427 15.4414 8.47396 14.5586 9.56378 14.4843C10.7825 14.3984 11.8138 15.0937 12.1497 16.2265C12.1927 16.3749 12.2239 16.5312 12.263 16.6835V17.2148C12.2513 17.2499 12.2318 17.2812 12.2278 17.3202C12.0599 18.3515 11.3177 19.1366 10.3021 19.3593C10.2239 19.3749 10.1458 19.3984 10.0677 19.4179H9.53644C9.50128 19.4062 9.46613 19.3866 9.43097 19.3827C8.41534 19.2187 7.64193 18.496 7.40753 17.4921C7.38409 17.3945 7.35677 17.3046 7.33333 17.2148ZM12.263 2.1992L12.263 2.73049C12.2513 2.77346 12.2318 2.81252 12.2278 2.85549C12.0521 3.98049 11.1185 4.85939 10.0169 4.92971C8.80206 5.00783 7.77472 4.30471 7.44269 3.16799C7.39972 3.02344 7.36847 2.87502 7.33331 2.73047V2.19922C7.34503 2.16406 7.36456 2.13281 7.37238 2.09766C7.55988 1.08203 8.14972 0.417969 9.13409 0.101563C9.263 0.0585938 9.39972 0.0351562 9.53253 0H10.0638C10.0989 0.0117188 10.1341 0.03125 10.1693 0.0351563C11.1888 0.203125 11.9583 0.921875 12.1927 1.92578C12.2161 2.01953 12.2396 2.10938 12.263 2.1992ZM12.263 9.44141V9.97266C12.2513 10.0156 12.2318 10.0547 12.2239 10.0977C12.0482 11.2188 11.0794 12.1211 9.98566 12.168C8.75519 12.2227 7.71222 11.4805 7.41925 10.3359C7.388 10.2148 7.36066 10.0938 7.33331 9.97266V9.44141C7.34503 9.39844 7.36456 9.35938 7.37238 9.31641C7.54425 8.19531 8.51691 7.29295 9.61066 7.24219C10.8411 7.18359 11.8841 7.92969 12.1771 9.07422C12.2083 9.19922 12.2357 9.32031 12.263 9.44141Z" fill="white"/>
</g>
</svg>
